<?xml version="1.0" encoding="iso-8859-1"?>
<!-- Uploaded to: SVG Repo, www.svgrepo.com, Generator: SVG Repo Mixer Tools -->
<!DOCTYPE svg PUBLIC "-//W3C//DTD SVG 1.1//EN" "http://www.w3.org/Graphics/SVG/1.1/DTD/svg11.dtd">
<svg fill="#000000" version="1.1" id="Capa_1" xmlns="http://www.w3.org/2000/svg" xmlns:xlink="http://www.w3.org/1999/xlink" 
	 width="800px" height="800px" viewBox="0 0 94 94" xml:space="preserve">
<g>
	<g>
		<path d="M65.646,15.726c-5.498-3.318-11.937-5.23-18.813-5.23c-20.129,0-36.505,16.376-36.505,36.504
			c0,3.02,0.371,5.953,1.064,8.76c0.99-2.042,6.353-10.947,25.25-12.952c0,0,17.91-0.956,23.646-1.62c0,0,5.381-0.642,9.832-3.222
			c0.685-1.07,2.103-3.702,2.239-7.325C72.545,25.654,70.24,20.568,65.646,15.726z"/>
		<path d="M68.598,54.882c-5.992,2.586-12.498,2.835-12.56,2.837c-8.825,0.434-14.378,2.219-14.435,2.236
			C29.78,63.881,30.205,71.174,30.23,71.482c0.002,7.033,5.507,10.156,5.563,10.187l0.523,0.29
			c3.331,1.003,6.862,1.546,10.516,1.546c20.13,0,36.509-16.377,36.509-36.506c0-1.595-0.104-3.166-0.305-4.708
			C80.648,47.668,75.956,51.705,68.598,54.882z"/>
		<path d="M89,0H5C2.238,0,0,2.238,0,5v84c0,2.762,2.238,5,5,5h84c2.762,0,5-2.238,5-5V5C94,2.238,91.762,0,89,0z M85.316,46.999
			c0,21.253-17.228,38.481-38.483,38.481c-3.72,0-6.913-0.532-10.315-1.517c-3.703-2.396-7.137-5.929-7.063-12.45
			c0.086-0.572-0.026-8.438,11.907-12.298c0.058-0.019,5.711-1.836,14.643-2.272c0.213-0.012,19.371-1.004,26.419-14.654
			c-2.328,3.571-6.337,7.107-13.244,8.695c0,0-9.863,2.818-17.589,3.014c0,0-15.451,0.193-23.273,7.238
			c0,0-10.641,8.625-0.582,17.49c1.331,1.404,4.223,3.369,6.801,4.743c-2.454-0.827-26.559-6.282-24.41-24.892
			c-1.151-3.654-1.774-7.543-1.774-11.58c0-21.252,17.229-38.48,38.482-38.48c5.957,0,11.595,1.356,16.628,3.771
			c9.193,8.692,9.818,14.822,9.672,18.426c-0.111,2.739-0.898,4.909-1.605,6.34c3.742-2.706,6.185-7.086,2.77-14.079
			c-2.273-3.925-6.635-8.38-9.494-10.071c2.995,0.658,20.672,5.147,20.848,19.422c0,0,0,2.417-1.078,5.551l-0.213,0.556
			C84.984,41.188,85.316,44.056,85.316,46.999z"/>
	</g>
</g>
</svg>